<mxfile host="app.diagrams.net" modified="2021-02-16T07:27:48.838Z" agent="5.0 (Windows NT 10.0; Win64; x64) AppleWebKit/537.36 (KHTML, like Gecko) Chrome/88.0.4324.150 Safari/537.36" etag="r31Dhb7cSnCzDY3CW3sF" version="14.3.2" type="github">
  <diagram id="OsPjjEv4UBPWSLu_bMo0" name="ページ1">
    <mxGraphModel dx="1038" dy="548" grid="1" gridSize="10" guides="1" tooltips="1" connect="1" arrows="1" fold="1" page="1" pageScale="1" pageWidth="827" pageHeight="1169" math="0" shadow="0">
      <root>
        <mxCell id="0" />
        <mxCell id="1" parent="0" />
        <mxCell id="AxEd3rcb6e4RxFdKStuE-23" value="" style="shape=image;html=1;verticalAlign=top;verticalLabelPosition=bottom;labelBackgroundColor=#ffffff;imageAspect=0;aspect=fixed;image=https://cdn2.iconfinder.com/data/icons/free-3d-printer-icon-set/128/Rotation.png;fontSize=20;fontColor=#333333;labelBorderColor=none;sketch=0;" vertex="1" parent="1">
          <mxGeometry x="390.5" y="335" width="68" height="68" as="geometry" />
        </mxCell>
        <mxCell id="AxEd3rcb6e4RxFdKStuE-5" value="" style="group" vertex="1" connectable="0" parent="1">
          <mxGeometry x="390" y="232" width="75" height="140" as="geometry" />
        </mxCell>
        <mxCell id="AxEd3rcb6e4RxFdKStuE-2" value="" style="shape=cylinder3;whiteSpace=wrap;html=1;boundedLbl=1;backgroundOutline=1;size=15;" vertex="1" parent="AxEd3rcb6e4RxFdKStuE-5">
          <mxGeometry y="40" width="70" height="100" as="geometry" />
        </mxCell>
        <mxCell id="AxEd3rcb6e4RxFdKStuE-4" value="" style="shape=cylinder3;whiteSpace=wrap;html=1;boundedLbl=1;backgroundOutline=1;size=3.800018310546875;" vertex="1" parent="AxEd3rcb6e4RxFdKStuE-5">
          <mxGeometry x="24.72" y="10" width="20.56" height="50" as="geometry" />
        </mxCell>
        <mxCell id="AxEd3rcb6e4RxFdKStuE-21" value="ワーク" style="text;html=1;align=center;verticalAlign=middle;resizable=0;points=[];autosize=1;fontSize=20;" vertex="1" parent="AxEd3rcb6e4RxFdKStuE-5">
          <mxGeometry x="-5" y="98" width="80" height="30" as="geometry" />
        </mxCell>
        <mxCell id="AxEd3rcb6e4RxFdKStuE-7" value="" style="shape=image;html=1;verticalAlign=top;verticalLabelPosition=bottom;labelBackgroundColor=#ffffff;imageAspect=0;aspect=fixed;image=https://cdn2.iconfinder.com/data/icons/ios-7-icons/50/video_camera-128.png;rotation=90;" vertex="1" parent="1">
          <mxGeometry x="400" y="120" width="50" height="50" as="geometry" />
        </mxCell>
        <mxCell id="AxEd3rcb6e4RxFdKStuE-8" value="" style="points=[[0,0.5,0],[0.19,0.02,0],[0.59,0,0],[0.985,0.02,0],[1,0.5,0],[0.985,0.98,0],[0.59,1,0],[0.19,0.98,0]];verticalLabelPosition=bottom;html=1;verticalAlign=top;aspect=fixed;align=center;pointerEvents=1;shape=mxgraph.cisco19.camera;fillColor=#005073;strokeColor=none;" vertex="1" parent="1">
          <mxGeometry x="550" y="298" width="54" height="30" as="geometry" />
        </mxCell>
        <mxCell id="AxEd3rcb6e4RxFdKStuE-9" value="" style="shape=image;html=1;verticalAlign=top;verticalLabelPosition=bottom;labelBackgroundColor=#ffffff;imageAspect=0;aspect=fixed;image=https://cdn4.iconfinder.com/data/icons/social-media-2231/512/61-nvidia_social-128.png" vertex="1" parent="1">
          <mxGeometry x="680" y="284" width="58" height="58" as="geometry" />
        </mxCell>
        <mxCell id="AxEd3rcb6e4RxFdKStuE-10" value="エッジAI" style="text;html=1;align=center;verticalAlign=middle;resizable=0;points=[];autosize=1;fontSize=20;" vertex="1" parent="1">
          <mxGeometry x="600" y="342" width="90" height="30" as="geometry" />
        </mxCell>
        <mxCell id="AxEd3rcb6e4RxFdKStuE-12" value="" style="endArrow=none;html=1;fontSize=20;entryX=0;entryY=0.5;entryDx=0;entryDy=0;exitX=1;exitY=0.5;exitDx=0;exitDy=0;exitPerimeter=0;" edge="1" parent="1" source="AxEd3rcb6e4RxFdKStuE-8" target="AxEd3rcb6e4RxFdKStuE-9">
          <mxGeometry width="50" height="50" relative="1" as="geometry">
            <mxPoint x="210" y="430" as="sourcePoint" />
            <mxPoint x="260" y="380" as="targetPoint" />
          </mxGeometry>
        </mxCell>
        <mxCell id="AxEd3rcb6e4RxFdKStuE-13" value="" style="shape=image;html=1;verticalAlign=top;verticalLabelPosition=bottom;labelBackgroundColor=#ffffff;imageAspect=0;aspect=fixed;image=https://cdn2.iconfinder.com/data/icons/ios-7-icons/50/video_camera-128.png;rotation=0;" vertex="1" parent="1">
          <mxGeometry x="250" y="288" width="50" height="50" as="geometry" />
        </mxCell>
        <mxCell id="AxEd3rcb6e4RxFdKStuE-14" value="エリアカメラ" style="text;html=1;align=center;verticalAlign=middle;resizable=0;points=[];autosize=1;fontSize=20;" vertex="1" parent="1">
          <mxGeometry x="464" y="120" width="140" height="30" as="geometry" />
        </mxCell>
        <mxCell id="AxEd3rcb6e4RxFdKStuE-15" value="ラインカメラ" style="text;html=1;align=center;verticalAlign=middle;resizable=0;points=[];autosize=1;fontSize=20;" vertex="1" parent="1">
          <mxGeometry x="190" y="342" width="140" height="30" as="geometry" />
        </mxCell>
        <mxCell id="AxEd3rcb6e4RxFdKStuE-16" value="" style="shape=process;whiteSpace=wrap;html=1;backgroundOutline=1;fontSize=20;size=0.3333333333333333;" vertex="1" parent="1">
          <mxGeometry x="60" y="97.5" width="170" height="95" as="geometry" />
        </mxCell>
        <mxCell id="AxEd3rcb6e4RxFdKStuE-17" value="コントローラ" style="text;html=1;align=center;verticalAlign=middle;resizable=0;points=[];autosize=1;fontSize=20;labelBackgroundColor=#ffffff;" vertex="1" parent="1">
          <mxGeometry x="75" y="150" width="140" height="30" as="geometry" />
        </mxCell>
        <mxCell id="AxEd3rcb6e4RxFdKStuE-19" value="" style="endArrow=none;html=1;fontSize=20;entryX=0.25;entryY=0;entryDx=0;entryDy=0;exitX=0.5;exitY=1;exitDx=0;exitDy=0;" edge="1" parent="1" source="AxEd3rcb6e4RxFdKStuE-16" target="AxEd3rcb6e4RxFdKStuE-13">
          <mxGeometry width="50" height="50" relative="1" as="geometry">
            <mxPoint x="200" y="250" as="sourcePoint" />
            <mxPoint x="140" y="300" as="targetPoint" />
          </mxGeometry>
        </mxCell>
        <mxCell id="AxEd3rcb6e4RxFdKStuE-20" value="" style="endArrow=none;html=1;fontSize=20;entryX=1;entryY=0.5;entryDx=0;entryDy=0;exitX=0.5;exitY=1;exitDx=0;exitDy=0;" edge="1" parent="1" source="AxEd3rcb6e4RxFdKStuE-7" target="AxEd3rcb6e4RxFdKStuE-16">
          <mxGeometry width="50" height="50" relative="1" as="geometry">
            <mxPoint x="195" y="225" as="sourcePoint" />
            <mxPoint x="260" y="323" as="targetPoint" />
          </mxGeometry>
        </mxCell>
      </root>
    </mxGraphModel>
  </diagram>
</mxfile>
